<svg xmlns="http://www.w3.org/2000/svg" xmlns:svg="http://www.w3.org/2000/svg" id="svg2" width="800" height="620" version="1.1"><defs id="defs4"><marker id="Arrow2Sstart" orient="auto" refX="0" refY="0" style="overflow:visible"><path id="path3720" style="font-size:12px;fill-rule:evenodd;stroke-width:.625;stroke-linejoin:round" d="M 8.7185878,4.0337352 -2.2072895,0.01601326 8.7185884,-4.0017078 c -1.7454984,2.3720609 -1.7354408,5.6174519 -6e-7,8.035443 z" transform="matrix(0.3,0,0,0.3,-0.69,0)"/></marker><marker id="Arrow2Mstart" orient="auto" refX="0" refY="0" style="overflow:visible"><path id="path3714" style="font-size:12px;fill-rule:evenodd;stroke-width:.625;stroke-linejoin:round" d="M 8.7185878,4.0337352 -2.2072895,0.01601326 8.7185884,-4.0017078 c -1.7454984,2.3720609 -1.7354408,5.6174519 -6e-7,8.035443 z" transform="scale(0.6,0.6)"/></marker><marker id="Arrow1Sstart" orient="auto" refX="0" refY="0" style="overflow:visible"><path id="path3702" d="M 0,0 5,-5 -12.5,0 5,5 0,0 z" style="fill-rule:evenodd;stroke:#000;stroke-width:1pt;marker-start:none" transform="matrix(0.2,0,0,0.2,1.2,0)"/></marker><marker id="Arrow1Lstart" orient="auto" refX="0" refY="0" style="overflow:visible"><path id="path3690" d="M 0,0 5,-5 -12.5,0 5,5 0,0 z" style="fill-rule:evenodd;stroke:#000;stroke-width:1pt;marker-start:none" transform="matrix(0.8,0,0,0.8,10,0)"/></marker><marker id="Arrow2Sstart-3" orient="auto" refX="0" refY="0" style="overflow:visible"><path id="path3720-2" style="font-size:12px;fill-rule:evenodd;stroke-width:.625;stroke-linejoin:round" d="M 8.7185878,4.0337352 -2.2072895,0.01601326 8.7185884,-4.0017078 c -1.7454984,2.3720609 -1.7354408,5.6174519 -6e-7,8.035443 z" transform="matrix(0.3,0,0,0.3,-0.69,0)"/></marker><marker id="Arrow2Sstart-5" orient="auto" refX="0" refY="0" style="overflow:visible"><path id="path3720-7" style="font-size:12px;fill-rule:evenodd;stroke-width:.625;stroke-linejoin:round" d="M 8.7185878,4.0337352 -2.2072895,0.01601326 8.7185884,-4.0017078 c -1.7454984,2.3720609 -1.7354408,5.6174519 -6e-7,8.035443 z" transform="matrix(0.3,0,0,0.3,-0.69,0)"/></marker><marker id="marker4933" orient="auto" refX="0" refY="0" style="overflow:visible"><path id="path4935" style="font-size:12px;fill-rule:evenodd;stroke-width:.625;stroke-linejoin:round" d="M 8.7185878,4.0337352 -2.2072895,0.01601326 8.7185884,-4.0017078 c -1.7454984,2.3720609 -1.7354408,5.6174519 -6e-7,8.035443 z" transform="matrix(0.3,0,0,0.3,-0.69,0)"/></marker></defs><metadata id="metadata7"/><g id="layer1" transform="translate(740,-252.36218)"><rect style="fill:#fff;fill-opacity:1;stroke:#000;stroke-width:0;stroke-linecap:square;stroke-linejoin:miter;stroke-miterlimit:4;stroke-opacity:1;stroke-dasharray:none" id="rect4958" width="800" height="620" x="-740" y="252.362"/><rect style="fill:#dcdcdc;fill-opacity:1;stroke:#000;stroke-width:4.22875309;stroke-miterlimit:4;stroke-opacity:1;stroke-dasharray:none" id="rect2818" width="760" height="120" x="-720" y="732.362"/><rect style="fill:#dcdcdc;fill-opacity:1;stroke:#000;stroke-width:4.22875309;stroke-miterlimit:4;stroke-opacity:1;stroke-dasharray:none" id="rect2818-8" width="760" height="120" x="-718.571" y="506.648"/><rect style="fill:#dcdcdc;fill-opacity:1;stroke:#000;stroke-width:4.22875309;stroke-miterlimit:4;stroke-opacity:1;stroke-dasharray:none" id="rect2818-3" width="760" height="120" x="-720" y="278.076"/><text xml:space="preserve" style="font-size:113.44860077px;font-style:normal;font-variant:normal;font-weight:400;font-stretch:normal;fill:#000;fill-opacity:1;stroke:none;font-family:Arial;-inkscape-font-specification:Arial" id="text3631" x="-746.033" y="774.764" transform="scale(0.94540502,1.0577477)"><tspan id="tspan3633" x="-746.033" y="774.764" style="font-size:75.63240051px">OPERATING SYSTEM</tspan></text><text xml:space="preserve" style="font-size:105.07688904px;font-style:normal;font-variant:normal;font-weight:400;font-stretch:normal;fill:#000;fill-opacity:1;stroke:none;font-family:Arial;-inkscape-font-specification:Arial" id="text3631-0" x="-809.087" y="518.696" transform="scale(0.87564072,1.1420209)"><tspan id="tspan3633-7" x="-809.087" y="518.696" style="font-size:70.0512619px">FENNEC FOX PLATFORM</tspan></text><text xml:space="preserve" style="font-size:120px;font-style:normal;font-variant:normal;font-weight:400;font-stretch:normal;fill:#000;fill-opacity:1;stroke:none;font-family:Arial;-inkscape-font-specification:Arial" id="text3631-0-6" x="-551.429" y="363.791"><tspan id="tspan3633-7-0" x="-551.429" y="363.791" style="font-size:80px">SWIFT FOX</tspan></text><path style="fill:none;stroke:#000;stroke-width:15;stroke-linecap:butt;stroke-linejoin:miter;stroke-miterlimit:4;stroke-opacity:1;stroke-dasharray:none;marker-start:url(#Arrow2Sstart)" id="path3685" d="m -387.14286,648.07647 0,80"/><path style="fill:none;stroke:#000;stroke-width:15;stroke-linecap:butt;stroke-linejoin:miter;stroke-miterlimit:4;stroke-opacity:1;stroke-dasharray:none;marker-start:url(#Arrow2Sstart)" id="path3685-2" d="m -300.00001,710.93361 0.41141,-79.999"/><path style="fill:none;stroke:#000;stroke-width:15;stroke-linecap:butt;stroke-linejoin:miter;stroke-miterlimit:4;stroke-opacity:1;stroke-dasharray:none;marker-start:url(#Arrow2Sstart)" id="path3685-0" d="m -385.07415,420.93312 0,80"/><path style="fill:none;stroke:#000;stroke-width:15;stroke-linecap:butt;stroke-linejoin:miter;stroke-miterlimit:4;stroke-opacity:1;stroke-dasharray:none;marker-start:url(#Arrow2Sstart)" id="path3685-2-2" d="m -297.9313,483.79026 0.41141,-79.999"/></g></svg>